<svg width="24" height="25" fill="none" xmlns="http://www.w3.org/2000/svg"><path opacity=".3" d="M8 15.5c-2.7 0-5.8 1.29-6 2.01v.99h12v-1c-.2-.71-3.3-2-6-2zm0-5a2 2 0 100-4 2 2 0 000 4z" fill="#FFAB00"/><path d="M22 9.5v-2h-2v2h-2v2h2v2h2v-2h2v-2h-2zm-14 3c2.21 0 4-1.79 4-4s-1.79-4-4-4-4 1.79-4 4 1.79 4 4 4zm0-6c1.1 0 2 .9 2 2s-.9 2-2 2-2-.9-2-2 .9-2 2-2zm0 7c-2.67 0-8 1.34-8 4v3h16v-3c0-2.66-5.33-4-8-4zm6 5H2v-.99c.2-.72 3.3-2.01 6-2.01s5.8 1.29 6 2v1zM12.51 4.55A6.016 6.016 0 0114 8.5c0 1.51-.57 2.89-1.49 3.95C14.47 12.2 16 10.54 16 8.5s-1.53-3.7-3.49-3.95zm4.02 9.78c.89.83 1.47 1.87 1.47 3.17v3h2v-3c0-1.45-1.59-2.51-3.47-3.17z" fill="#FFAB00"/></svg>